<svg xmlns="http://www.w3.org/2000/svg" xmlns:xlink="http://www.w3.org/1999/xlink" width="512" zoomAndPan="magnify" viewBox="0 0 384 383.999986" height="512" preserveAspectRatio="xMidYMid meet" version="1.0"><defs><g/></defs><g fill="#ffffff" fill-opacity="1"><g transform="translate(17.119796, 258.778648)"><g><path d="M 61.734375 -125.566406 L 61.734375 -116.125 L 34.976562 -116.125 L 34.976562 -125.566406 Z M 34.976562 -92.164062 L 34.976562 -102.132812 L 61.734375 -102.132812 L 61.734375 -92.164062 Z M 81.148438 -76.425781 L 81.148438 -141.480469 L 14.339844 -141.480469 L 14.339844 15.214844 L 34.976562 15.214844 L 34.976562 -76.425781 Z M 101.257812 -47.21875 L 101.257812 -26.582031 L 72.402344 -26.582031 L 72.402344 -47.21875 Z M 120.671875 -9.445312 L 120.671875 -64.359375 L 52.988281 -64.359375 L 52.988281 0.351562 L 72.402344 0.351562 L 72.402344 -9.445312 Z M 112.976562 -91.988281 L 112.976562 -102.132812 L 140.609375 -102.132812 L 140.609375 -91.988281 Z M 140.609375 -125.742188 L 140.609375 -116.125 L 112.976562 -116.125 L 112.976562 -125.742188 Z M 161.769531 -141.480469 L 93.214844 -141.480469 L 93.214844 -76.25 L 140.609375 -76.25 L 140.609375 -9.96875 C 140.609375 -6.820312 139.382812 -5.769531 136.058594 -5.769531 C 132.738281 -5.597656 120.84375 -5.421875 110.703125 -6.121094 C 113.675781 -0.523438 117 9.269531 117.699219 15.214844 C 133.785156 15.214844 144.804688 14.691406 151.976562 11.191406 C 159.320312 7.871094 161.769531 1.921875 161.769531 -9.617188 Z M 161.769531 -141.480469 "/></g></g></g><g fill="#ffffff" fill-opacity="1"><g transform="translate(191.998737, 258.778648)"><g><path d="M 56.835938 -107.730469 L 62.085938 -110.003906 C 61.035156 -114.023438 57.886719 -119.445312 54.5625 -124.167969 C 60.511719 -124.519531 66.457031 -124.867188 72.402344 -125.21875 C 75.726562 -119.796875 78.875 -113.152344 80.445312 -107.730469 Z M 89.714844 -107.730469 L 98.984375 -111.226562 C 97.9375 -115.597656 95.136719 -121.195312 91.988281 -126.441406 C 103.707031 -127.492188 115.074219 -128.539062 125.742188 -129.941406 C 122.59375 -122.945312 117.699219 -113.851562 113.675781 -107.730469 Z M 32.527344 -91.816406 L 74.5 -91.816406 L 70.652344 -87.617188 C 79.398438 -83.769531 90.242188 -77.472656 95.488281 -72.578125 L 105.980469 -84.121094 C 103.007812 -86.566406 98.808594 -89.367188 94.089844 -91.816406 L 141.65625 -91.816406 L 141.65625 -77.125 C 137.460938 -80.796875 133.085938 -84.46875 129.066406 -87.441406 L 115.074219 -77.648438 C 125.21875 -69.605469 136.761719 -57.886719 141.832031 -49.667969 L 156.695312 -60.859375 C 154.074219 -64.707031 150.226562 -69.078125 145.503906 -73.453125 L 162.292969 -73.453125 L 162.292969 -107.730469 L 134.136719 -107.730469 C 138.335938 -113.152344 142.882812 -119.445312 147.253906 -125.742188 L 131.511719 -130.640625 C 139.558594 -131.863281 146.902344 -133.085938 153.898438 -134.488281 L 140.082031 -148.300781 C 111.402344 -142.53125 60.683594 -139.207031 17.664062 -138.335938 C 19.414062 -134.488281 21.335938 -127.667969 21.6875 -123.292969 C 26.40625 -123.292969 31.128906 -123.46875 35.851562 -123.644531 L 33.925781 -122.769531 C 37.25 -118.222656 40.574219 -112.625 42.847656 -107.730469 L 12.765625 -107.730469 L 12.765625 -75.898438 L 32.527344 -75.898438 Z M 32.003906 -47.917969 C 43.371094 -55.261719 50.542969 -66.457031 55.4375 -77.648438 L 39.875 -84.292969 C 35.5 -74.851562 27.632812 -65.058594 17.664062 -59.636719 Z M 107.378906 -30.953125 C 101.78125 -26.058594 95.136719 -21.859375 87.441406 -18.1875 C 78.875 -21.859375 71.527344 -26.058594 65.582031 -30.953125 Z M 124.691406 -45.820312 L 121.195312 -45.296875 L 80.621094 -45.296875 C 83.070312 -47.742188 85.34375 -50.367188 87.441406 -52.988281 L 86.394531 -53.339844 L 102.484375 -53.339844 C 115.425781 -53.339844 120.320312 -57.011719 122.246094 -70.480469 C 117.171875 -71.351562 110.175781 -73.625 106.328125 -75.898438 C 105.804688 -68.730469 104.582031 -67.679688 100.210938 -67.679688 L 81.847656 -67.679688 C 76.074219 -67.679688 74.851562 -68.03125 74.851562 -72.050781 L 74.851562 -84.121094 L 55.789062 -84.121094 L 55.789062 -72.050781 C 55.789062 -62.085938 57.886719 -56.835938 65.582031 -54.738281 C 52.988281 -41.972656 32.878906 -31.652344 12.589844 -25.535156 C 16.789062 -22.386719 23.609375 -15.390625 26.933594 -11.71875 C 34.628906 -14.691406 42.496094 -18.539062 50.191406 -22.734375 C 54.914062 -18.1875 60.160156 -14.164062 65.929688 -10.492188 C 48.96875 -5.769531 29.554688 -2.972656 9.09375 -1.574219 C 12.589844 2.625 17.839844 10.84375 19.761719 15.566406 C 43.894531 12.941406 67.15625 8.21875 87.09375 0.523438 C 106.679688 8.394531 129.765625 13.117188 155.472656 15.390625 C 158.097656 9.792969 163.167969 1.398438 167.363281 -3.148438 C 146.378906 -4.195312 126.964844 -6.644531 110.003906 -10.84375 C 121.371094 -18.011719 130.640625 -26.757812 137.632812 -37.601562 Z M 124.691406 -45.820312 "/></g></g></g></svg>