<svg enable-background="new 0 0 512 512" height="512" viewBox="0 0 512 512" width="512" xmlns="http://www.w3.org/2000/svg"><g id="_x32_1_Add_Love"><g><path d="m256 6.151c-137.768 0-249.849 112.085-249.849 249.849s112.081 249.849 249.849 249.849c40.247 0 80.323-9.836 115.897-28.456 3.82-1.998 5.295-6.717 3.298-10.537-1.998-3.82-6.706-5.314-10.541-3.294-33.347 17.445-70.918 26.671-108.653 26.671-129.157 0-234.234-105.077-234.234-234.233s105.077-234.233 234.233-234.233 234.233 105.077 234.233 234.233c0 37.926-8.795 74.151-26.142 107.669-1.982 3.835-.484 8.547 3.347 10.522 3.824 1.99 8.544.48 10.522-3.34 18.505-35.76 27.888-74.403 27.888-114.852.001-137.763-112.08-249.848-249.848-249.848z"/><path d="m387.639 264.759-126.095 126.096c-1.562 1.483-3.514 2.264-5.544 2.264s-3.982-.781-5.543-2.264l-126.096-126.096c-30.138-30.06-30.138-78.781 0-108.84 29.982-30.06 78.781-30.06 108.84 0l22.799 22.798 22.799-22.799c30.06-30.06 78.858-30.06 108.84 0 30.138 30.06 30.138 78.781 0 108.841z"/><path d="m376.643 434.877h43.633v43.629c0 4.316 3.496 7.808 7.808 7.808s7.808-3.492 7.808-7.808v-43.629h43.633c4.312 0 7.808-3.492 7.808-7.808s-3.496-7.808-7.808-7.808h-43.633v-43.637c0-4.316-3.496-7.808-7.808-7.808s-7.808 3.492-7.808 7.808v43.637h-43.633c-4.312 0-7.808 3.492-7.808 7.808s3.496 7.808 7.808 7.808z"/></g></g></svg>